<svg width="28" height="43" viewBox="0 0 28 43" fill="none" xmlns="http://www.w3.org/2000/svg">
<g clip-path="url(#clip0_1_500)">
<g clip-path="url(#clip1_1_500)">
<mask id="mask0_1_500" style="mask-type:alpha" maskUnits="userSpaceOnUse" x="0" y="6" width="28" height="31">
<path d="M8.89415 32.8597C8.89415 34.861 7.27184 36.4833 5.27062 36.4833C3.2694 36.4833 1.64709 34.861 1.64709 32.8597C1.64709 30.8585 3.2694 29.2362 5.27062 29.2362C7.27184 29.2362 8.89415 30.8585 8.89415 32.8597Z" fill="#C4C4C4"/>
<path d="M26.3531 32.8597C26.3531 34.861 24.7308 36.4833 22.7296 36.4833C20.7284 36.4833 19.1061 34.861 19.1061 32.8597C19.1061 30.8585 20.7284 29.2362 22.7296 29.2362C24.7308 29.2362 26.3531 30.8585 26.3531 32.8597Z" fill="#C4C4C4"/>
<path fill-rule="evenodd" clip-rule="evenodd" d="M25.1913 30.2008C25.4382 30.4295 25.4094 30.8159 25.1508 31.0313C23.7802 32.1729 22.0174 32.8597 20.0941 32.8597H19.7649C19.401 32.8597 19.0998 32.5621 19.1652 32.2041C19.4737 30.5159 20.9522 29.2362 22.7296 29.2362C23.68 29.2362 24.545 29.6021 25.1913 30.2008ZM27.0987 28.6232C26.8986 29.0043 26.3844 29.038 26.0504 28.7667C25.144 28.0304 23.9883 27.5892 22.7296 27.5892C20.0414 27.5892 17.8233 29.6016 17.4996 32.2022C17.4547 32.5632 17.164 32.8597 16.8002 32.8597H11.2C10.8361 32.8597 10.5455 32.5632 10.5006 32.2022C10.1769 29.6016 7.95876 27.5892 5.27059 27.5892C4.0118 27.5892 2.85608 28.0304 1.94969 28.7668C1.61563 29.0381 1.10145 29.0044 0.901402 28.6233C0.325709 27.5267 0 26.2783 0 24.9538V23.3066C0 22.9428 0.294965 22.6478 0.658823 22.6478H27.3412C27.705 22.6478 28 22.9428 28 23.3066V24.9538C28 26.2782 27.6743 27.5266 27.0987 28.6232ZM28 20.3419C28 20.7058 27.705 21.0007 27.3412 21.0007H0.658824C0.294965 21.0007 0 20.7058 0 20.3419V16.389C0 16.0252 0.294965 15.7302 0.658823 15.7302H27.3412C27.705 15.7302 28 16.0252 28 16.389V20.3419ZM7.90588 6.50671C3.883 6.50671 0.561907 9.51139 0.0643695 13.399C0.0168356 13.7704 0.318678 14.0831 0.693122 14.0831H27.3069C27.6813 14.0831 27.9832 13.7704 27.9356 13.399C27.4381 9.51139 24.117 6.50671 20.0941 6.50671H7.90588ZM5.27059 29.2362C7.04795 29.2362 8.52644 30.5159 8.83496 32.2041C8.90037 32.5621 8.59914 32.8597 8.23528 32.8597H7.90588C5.98268 32.8597 4.21987 32.1729 2.84928 31.0314C2.59074 30.816 2.56193 30.4295 2.80878 30.2009C3.45509 29.6022 4.3201 29.2362 5.27059 29.2362Z" fill="#C4C4C4"/>
</mask>
<g mask="url(#mask0_1_500)">
<path d="M31.9529 4.20104H-1.64709V15.0716H31.9529V4.20104Z" fill="url(#paint0_linear_1_500)"/>
<path d="M31.9529 21.9891H-1.64709V38.4597H31.9529V21.9891Z" fill="#FFA833"/>
<path d="M28.3294 15.0717H1.97644C-0.0247853 15.0717 -1.64709 16.694 -1.64709 18.6952C-1.64709 20.6964 -0.0247853 22.3187 1.97644 22.3187H28.3294C30.3306 22.3187 31.9529 20.6964 31.9529 18.6952C31.9529 16.694 30.3306 15.0717 28.3294 15.0717Z" fill="#F17228"/>
<path d="M8.89418 29.2362H-23.0587V36.4833H8.89418V29.2362Z" fill="#F58D00"/>
<path d="M51.059 29.2362H19.1061V36.4833H51.059V29.2362Z" fill="#F58D00"/>
<path d="M8.29049 9.78539C8.80659 9.58878 9.14528 9.2202 9.04697 8.96215C8.94866 8.7041 8.45059 8.65429 7.93449 8.85091C7.41838 9.04752 7.07969 9.4161 7.178 9.67415C7.27631 9.9322 7.77438 9.98201 8.29049 9.78539Z" fill="white"/>
<path d="M14 9.495C14.5523 9.495 15 9.27114 15 8.995C15 8.71885 14.5523 8.495 14 8.495C13.4477 8.495 13 8.71885 13 8.995C13 9.27114 13.4477 9.495 14 9.495Z" fill="white"/>
<path d="M18.8819 9.84825C19.3691 10.1085 19.8694 10.1221 19.9996 9.8785C20.1297 9.63494 19.8403 9.22651 19.3532 8.96625C18.8661 8.70598 18.3657 8.69244 18.2356 8.93599C18.1054 9.17955 18.3948 9.58798 18.8819 9.84825Z" fill="white"/>
</g>
</g>
</g>
<defs>
<linearGradient id="paint0_linear_1_500" x1="15" y1="5.99499" x2="15" y2="23.495" gradientUnits="userSpaceOnUse">
<stop stop-color="#FFD16D"/>
<stop offset="1" stop-color="#FF7A00"/>
</linearGradient>
<clipPath id="clip0_1_500">
<rect width="28" height="41.45" fill="white" transform="translate(0 0.769997)"/>
</clipPath>
<clipPath id="clip1_1_500">
<rect width="28" height="30" fill="white" transform="translate(0 6.495)"/>
</clipPath>
</defs>
</svg>
